<mxfile host="65bd71144e">
    <diagram id="P0iqR6xschAtw16_PYDK" name="Page-1">
        <mxGraphModel dx="1746" dy="1726" grid="1" gridSize="10" guides="1" tooltips="1" connect="1" arrows="1" fold="1" page="1" pageScale="1" pageWidth="827" pageHeight="1169" background="#ffffff" math="0" shadow="0">
            <root>
                <mxCell id="0"/>
                <mxCell id="1" parent="0"/>
                <mxCell id="2" value="&lt;b&gt;&lt;font style=&quot;font-size: 20px;&quot; color=&quot;#000000&quot;&gt;アーキテクチャの全体像&lt;/font&gt;&lt;/b&gt;" style="text;html=1;strokeColor=none;fillColor=none;align=center;verticalAlign=middle;whiteSpace=wrap;rounded=0;" parent="1" vertex="1">
                    <mxGeometry x="-169" y="-1150" width="270" height="50" as="geometry"/>
                </mxCell>
                <mxCell id="4" value="&lt;b&gt;&lt;font color=&quot;#0b0a0a&quot;&gt;Blockchain&lt;/font&gt;&lt;/b&gt;" style="shape=cube;whiteSpace=wrap;html=1;boundedLbl=1;backgroundOutline=1;darkOpacity=0.05;darkOpacity2=0.1;fontSize=20;fillColor=#fff2cc;strokeColor=#d6b656;" vertex="1" parent="1">
                    <mxGeometry x="399" y="-800" width="230" height="80" as="geometry"/>
                </mxCell>
                <mxCell id="5" value="&lt;b&gt;&lt;font color=&quot;#000000&quot;&gt;スマコン&lt;/font&gt;&lt;/b&gt;" style="shape=cube;whiteSpace=wrap;html=1;boundedLbl=1;backgroundOutline=1;darkOpacity=0.05;darkOpacity2=0.1;fontSize=20;fillColor=#e1d5e7;strokeColor=#9673a6;" vertex="1" parent="1">
                    <mxGeometry x="399" y="-860" width="230" height="80" as="geometry"/>
                </mxCell>
                <mxCell id="3" value="&lt;b&gt;&lt;font color=&quot;#000000&quot;&gt;LLM&lt;/font&gt;&lt;/b&gt;" style="shape=cube;whiteSpace=wrap;html=1;boundedLbl=1;backgroundOutline=1;darkOpacity=0.05;darkOpacity2=0.1;fontSize=20;fillColor=#ffe6cc;strokeColor=#d79b00;" parent="1" vertex="1">
                    <mxGeometry x="199" y="-800" width="220" height="80" as="geometry"/>
                </mxCell>
                <mxCell id="8" value="&lt;font color=&quot;#000000&quot;&gt;&lt;b&gt;AI Agent Kit&lt;/b&gt;&lt;/font&gt;" style="shape=cube;whiteSpace=wrap;html=1;boundedLbl=1;backgroundOutline=1;darkOpacity=0.05;darkOpacity2=0.1;fontSize=20;fillColor=#f8cecc;strokeColor=#b85450;" vertex="1" parent="1">
                    <mxGeometry x="199" y="-860" width="220" height="80" as="geometry"/>
                </mxCell>
                <mxCell id="6" value="&lt;font color=&quot;#1a1919&quot;&gt;&lt;b&gt;(バックエンド) API&amp;nbsp;サーバー&lt;/b&gt;&lt;/font&gt;" style="shape=cube;whiteSpace=wrap;html=1;boundedLbl=1;backgroundOutline=1;darkOpacity=0.05;darkOpacity2=0.1;fontSize=20;fillColor=#dae8fc;strokeColor=#6c8ebf;" vertex="1" parent="1">
                    <mxGeometry x="199" y="-930" width="430" height="90" as="geometry"/>
                </mxCell>
                <mxCell id="7" value="&lt;b&gt;&lt;font color=&quot;#000000&quot;&gt;フロントエンド&lt;/font&gt;&lt;/b&gt;" style="shape=cube;whiteSpace=wrap;html=1;boundedLbl=1;backgroundOutline=1;darkOpacity=0.05;darkOpacity2=0.1;fontSize=20;fillColor=#d5e8d4;strokeColor=#82b366;" vertex="1" parent="1">
                    <mxGeometry x="199" y="-1000" width="430" height="90" as="geometry"/>
                </mxCell>
                <mxCell id="13" value="Next.js&lt;br&gt;Privy" style="shape=ext;double=1;rounded=1;whiteSpace=wrap;html=1;fontSize=16;fillColor=#b0e3e6;strokeColor=#0e8088;fontColor=#000000;fontStyle=1" vertex="1" parent="1">
                    <mxGeometry x="660" y="-1060" width="140" height="80" as="geometry"/>
                </mxCell>
                <mxCell id="14" value="" style="endArrow=none;html=1;fontSize=16;fontColor=#000000;labelBorderColor=#000000;strokeColor=#000000;strokeWidth=4;entryX=0;entryY=0.5;entryDx=0;entryDy=0;" edge="1" parent="1" target="13">
                    <mxGeometry width="50" height="50" relative="1" as="geometry">
                        <mxPoint x="630" y="-980" as="sourcePoint"/>
                        <mxPoint x="730" y="-920" as="targetPoint"/>
                    </mxGeometry>
                </mxCell>
                <mxCell id="15" value="Hono&lt;br&gt;Cloud Run" style="shape=ext;double=1;rounded=1;whiteSpace=wrap;html=1;fontSize=16;fillColor=#b0e3e6;strokeColor=#0e8088;fontColor=#000000;fontStyle=1" vertex="1" parent="1">
                    <mxGeometry x="660" y="-949.97" width="140" height="80" as="geometry"/>
                </mxCell>
                <mxCell id="16" value="" style="endArrow=none;html=1;fontSize=16;fontColor=#000000;labelBorderColor=#000000;strokeColor=#000000;strokeWidth=4;entryX=0;entryY=0.5;entryDx=0;entryDy=0;exitX=0;exitY=0;exitDx=430;exitDy=55;exitPerimeter=0;" edge="1" parent="1" target="15" source="6">
                    <mxGeometry width="50" height="50" relative="1" as="geometry">
                        <mxPoint x="600.19" y="-860" as="sourcePoint"/>
                        <mxPoint x="730" y="-809.97" as="targetPoint"/>
                    </mxGeometry>
                </mxCell>
                <mxCell id="17" value="Hardhat" style="shape=ext;double=1;rounded=1;whiteSpace=wrap;html=1;fontSize=16;fillColor=#b0e3e6;strokeColor=#0e8088;fontColor=#000000;fontStyle=1" vertex="1" parent="1">
                    <mxGeometry x="670" y="-810" width="140" height="70" as="geometry"/>
                </mxCell>
                <mxCell id="18" value="" style="endArrow=none;html=1;fontSize=16;fontColor=#000000;labelBorderColor=#000000;strokeColor=#000000;strokeWidth=4;entryX=0;entryY=0.5;entryDx=0;entryDy=0;exitX=0;exitY=0;exitDx=230;exitDy=50;exitPerimeter=0;" edge="1" parent="1" target="17" source="5">
                    <mxGeometry width="50" height="50" relative="1" as="geometry">
                        <mxPoint x="610.19" y="-720.03" as="sourcePoint"/>
                        <mxPoint x="740" y="-670" as="targetPoint"/>
                    </mxGeometry>
                </mxCell>
                <mxCell id="19" value="Flow&lt;br&gt;Gnosis&lt;br&gt;Warden Protocol" style="shape=ext;double=1;rounded=1;whiteSpace=wrap;html=1;fontSize=16;fillColor=#b0e3e6;strokeColor=#0e8088;fontColor=#000000;fontStyle=1" vertex="1" parent="1">
                    <mxGeometry x="670" y="-710" width="140" height="70" as="geometry"/>
                </mxCell>
                <mxCell id="20" value="" style="endArrow=none;html=1;fontSize=16;fontColor=#000000;labelBorderColor=#000000;strokeColor=#000000;strokeWidth=4;entryX=0;entryY=0.5;entryDx=0;entryDy=0;exitX=1;exitY=1;exitDx=0;exitDy=0;exitPerimeter=0;" edge="1" parent="1" target="19" source="4">
                    <mxGeometry width="50" height="50" relative="1" as="geometry">
                        <mxPoint x="619" y="-710" as="sourcePoint"/>
                        <mxPoint x="730" y="-570" as="targetPoint"/>
                    </mxGeometry>
                </mxCell>
                <mxCell id="21" value="Intent Kit&lt;br&gt;LangChain&lt;br&gt;LangGraph&lt;br&gt;Gemini API in Vertex AI&lt;br&gt;Eilza&lt;br&gt;Autonome" style="shape=ext;double=1;rounded=1;whiteSpace=wrap;html=1;fontSize=16;fillColor=#b0e3e6;strokeColor=#0e8088;fontColor=#000000;fontStyle=1" vertex="1" parent="1">
                    <mxGeometry x="-110" y="-920" width="211" height="130" as="geometry"/>
                </mxCell>
                <mxCell id="22" value="" style="endArrow=none;html=1;fontSize=16;fontColor=#000000;labelBorderColor=#000000;strokeColor=#000000;strokeWidth=4;exitX=1;exitY=0.5;exitDx=0;exitDy=0;" edge="1" parent="1" target="8" source="21">
                    <mxGeometry width="50" height="50" relative="1" as="geometry">
                        <mxPoint x="-80" y="-850" as="sourcePoint"/>
                        <mxPoint x="31" y="-710" as="targetPoint"/>
                    </mxGeometry>
                </mxCell>
                <mxCell id="23" value="Gemini&lt;br&gt;OpenAI&lt;br&gt;Gaia Network" style="shape=ext;double=1;rounded=1;whiteSpace=wrap;html=1;fontSize=16;fillColor=#b0e3e6;strokeColor=#0e8088;fontColor=#000000;fontStyle=1" vertex="1" parent="1">
                    <mxGeometry x="-110" y="-750" width="211" height="110" as="geometry"/>
                </mxCell>
                <mxCell id="24" value="" style="endArrow=none;html=1;fontSize=16;fontColor=#000000;labelBorderColor=#000000;strokeColor=#000000;strokeWidth=4;exitX=1;exitY=0.5;exitDx=0;exitDy=0;entryX=0;entryY=0;entryDx=0;entryDy=30;entryPerimeter=0;" edge="1" parent="1" source="23" target="3">
                    <mxGeometry width="50" height="50" relative="1" as="geometry">
                        <mxPoint x="-80" y="-660" as="sourcePoint"/>
                        <mxPoint x="199" y="-653.7980769230769" as="targetPoint"/>
                    </mxGeometry>
                </mxCell>
            </root>
        </mxGraphModel>
    </diagram>
</mxfile>
